<svg width="25" height="25" viewBox="0 0 25 25" fill="none" xmlns="http://www.w3.org/2000/svg">
<g id="chevron_right_24dp_E8EAED_FILL1_wght400_GRAD0_opsz24 1">
<path id="Vector" d="M12.8 12.4998L8.90002 8.5998C8.71668 8.41647 8.62502 8.18314 8.62502 7.8998C8.62502 7.61647 8.71668 7.38314 8.90002 7.1998C9.08335 7.01647 9.31668 6.9248 9.60002 6.9248C9.88335 6.9248 10.1167 7.01647 10.3 7.1998L14.9 11.7998C15 11.8998 15.0708 12.0081 15.1125 12.1248C15.1542 12.2415 15.175 12.3665 15.175 12.4998C15.175 12.6331 15.1542 12.7581 15.1125 12.8748C15.0708 12.9915 15 13.0998 14.9 13.1998L10.3 17.7998C10.1167 17.9831 9.88335 18.0748 9.60002 18.0748C9.31668 18.0748 9.08335 17.9831 8.90002 17.7998C8.71668 17.6165 8.62502 17.3831 8.62502 17.0998C8.62502 16.8165 8.71668 16.5831 8.90002 16.3998L12.8 12.4998Z" fill="#E8EAED"/>
</g>
</svg>
